<svg xmlns="http://www.w3.org/2000/svg" xmlns:xlink="http://www.w3.org/1999/xlink"><symbol id="sprite-arrow" viewBox="0 0 12 10"><path d="m11.763 5.263-4.5 4.5a.371.371 0 0 1-.526-.525l3.857-3.863H.5a.375.375 0 0 1 0-.75h10.094L6.738.763a.371.371 0 1 1 .524-.525l4.5 4.5a.363.363 0 0 1 0 .525"/></symbol><use xlink:href="#sprite-arrow" width="12" height="10" y="0"/><view id="sprite-arrow-view" viewBox="0 0 12 10"/><symbol id="sprite-figure01" viewBox="0 0 43 12"><path d="M5.843.686 11.5 6.343 5.843 12 .186 6.343zm0 9.9 4.243-4.243L5.843 2.1 1.6 6.343z" fill-opacity="0.15"/><path d="M11.5 5.843h20v1h-20z" fill-opacity="0.15"/><path d="m37.157.686 5.657 5.657L37.157 12 31.5 6.343zm0 9.9L41.4 6.343 37.157 2.1l-4.243 4.243z" fill-opacity="0.15"/></symbol><use xlink:href="#sprite-figure01" width="43" height="12" y="10"/><view id="sprite-figure01-view" viewBox="0 10 43 12"/><symbol id="sprite-figure02" viewBox="0 0 62 12"><path d="M5.843.343 11.5 6l-5.657 5.657L.187 6zm0 9.9L10.086 6 5.843 1.757 1.601 6z" fill-opacity="0.15"/><path d="M11.5 5.5h50v1h-50z" fill-opacity="0.15"/></symbol><use xlink:href="#sprite-figure02" width="62" height="12" y="22"/><view id="sprite-figure02-view" viewBox="0 22 62 12"/><symbol id="sprite-figure03" viewBox="0 0 32 13"><path d="M5.843.843 11.5 6.5l-5.657 5.657L.187 6.5zm0 9.9L10.086 6.5 5.843 2.257 1.601 6.5z" fill-opacity="0.15"/><path d="M11.5 6h20v1h-20z" fill-opacity="0.15"/></symbol><use xlink:href="#sprite-figure03" width="32" height="13" y="34"/><view id="sprite-figure03-view" viewBox="0 34 32 13"/><symbol id="sprite-leaf" viewBox="0 0 12 12"><path d="M11.84.512a.375.375 0 0 0-.352-.353c-4.711-.277-8.48 1.135-10.08 3.779C.318 5.736.361 7.861 1.52 9.95L.235 11.235a.375.375 0 1 0 .53.53L2.05 10.48c1.08.6 2.169.9 3.218.9a5.33 5.33 0 0 0 2.795-.788c2.643-1.6 4.055-5.369 3.778-10.08M7.675 9.949c-1.505.912-3.29.899-5.07-.024l5.662-5.662a.375.375 0 0 0-.53-.53L2.074 9.396c-.923-1.78-.938-3.562-.025-5.07C3.467 1.986 6.84.713 11.112.89c.175 4.27-1.098 7.643-3.438 9.06z"/></symbol><use xlink:href="#sprite-leaf" width="12" height="12" y="47"/><view id="sprite-leaf-view" viewBox="0 47 12 12"/><symbol id="sprite-s-facebook" viewBox="0 0 16 16"><path d="M15.172 8A7.172 7.172 0 1 0 8 15.172 7.18 7.18 0 0 0 15.172 8m-6.75 6.314V9.547h1.828a.422.422 0 1 0 0-.844H8.422V6.875a1.273 1.273 0 0 1 1.265-1.266h1.126a.422.422 0 1 0 0-.843H9.687a2.116 2.116 0 0 0-2.109 2.109v1.828H5.75a.422.422 0 0 0 0 .844h1.828v4.767a6.328 6.328 0 1 1 .844 0"/></symbol><use xlink:href="#sprite-s-facebook" width="16" height="16" y="59"/><view id="sprite-s-facebook-view" viewBox="0 59 16 16"/><symbol id="sprite-s-inst" viewBox="0 0 14 14"><path d="M7 3.766a3.234 3.234 0 1 0 0 6.468 3.234 3.234 0 0 0 0-6.468M7 9.39A2.39 2.39 0 1 1 9.39 7 2.4 2.4 0 0 1 7 9.39M10.094.109H3.906A3.797 3.797 0 0 0 .11 3.906v6.188a3.797 3.797 0 0 0 3.797 3.797h6.188a3.797 3.797 0 0 0 3.797-3.797V3.906A3.797 3.797 0 0 0 10.094.11m2.953 9.985a2.953 2.953 0 0 1-2.953 2.953H3.906a2.953 2.953 0 0 1-2.953-2.953V3.906A2.953 2.953 0 0 1 3.906.953h6.188a2.953 2.953 0 0 1 2.953 2.953zm-1.688-6.75a.704.704 0 1 1-1.407 0 .704.704 0 0 1 1.407 0"/></symbol><use xlink:href="#sprite-s-inst" width="14" height="14" y="75"/><view id="sprite-s-inst-view" viewBox="0 75 14 14"/><symbol id="sprite-s-x" viewBox="0 0 16 15"><path d="M15.262 2.9a.42.42 0 0 0-.387-.26h-2.222A3.23 3.23 0 0 0 9.855.954a3.26 3.26 0 0 0-3.277 3.234V4.8c-2.981-.71-5.442-3.136-5.47-3.157a.422.422 0 0 0-.71.218C-.214 5.207.79 7.443 1.74 8.73a7.4 7.4 0 0 0 1.828 1.765c-1.09 1.321-2.883 2.01-2.904 2.018a.41.41 0 0 0-.253.267.4.4 0 0 0 .049.358c.07.106.76 1.034 3.164 1.034 4.9 0 9-3.79 9.394-8.656l2.151-2.158a.4.4 0 0 0 .092-.457m-2.953 2.131a.4.4 0 0 0-.12.274c-.288 4.5-4.05 8.023-8.564 8.023-.977 0-1.603-.169-1.976-.337.795-.401 2.096-1.189 2.89-2.384a.44.44 0 0 0 .056-.337.43.43 0 0 0-.218-.275c-.014 0-1.068-.548-1.982-1.8-1.09-1.49-1.52-3.311-1.28-5.414 1.026.872 3.241 2.517 5.815 2.946a.415.415 0 0 0 .492-.415V4.187a2.41 2.41 0 0 1 2.419-2.39 2.4 2.4 0 0 1 2.165 1.434.415.415 0 0 0 .387.253h1.462z"/></symbol><use xlink:href="#sprite-s-x" width="16" height="15" y="89"/><view id="sprite-s-x-view" viewBox="0 89 16 15"/><symbol id="sprite-square" viewBox="0 0 12 13"><rect x="1.20711" y="6.5" width="7" height="7" transform="rotate(-45 1.20711 6.5)" stroke-opacity="0.15"/></symbol><use xlink:href="#sprite-square" width="12" height="13" y="104"/><view id="sprite-square-view" viewBox="0 104 12 13"/><symbol id="sprite-star" viewBox="0 0 14 14"><path d="m7.333 11.013 4.12 2.487-1.094-4.687L14 5.66l-4.793-.407L7.333.833l-1.874 4.42-4.793.407 3.64 3.153L3.213 13.5z"/></symbol><use xlink:href="#sprite-star" width="14" height="14" y="117"/><view id="sprite-star-view" viewBox="0 117 14 14"/></svg>